<svg width="12" height="14" viewBox="0 0 12 14" fill="none" xmlns="http://www.w3.org/2000/svg">
<g clip-path="url(#clip0_1_99)">
<path d="M1.33333 3.42045C1.33333 1.51136 2.81905 0 4.60952 0C6.4 0 7.88571 1.51136 7.88571 3.42045C7.88571 5.32955 6.4381 6.84091 4.60952 6.84091C2.78095 6.84091 1.33333 5.28977 1.33333 3.42045ZM12 10.5795C12 12.4489 10.5524 14 8.72381 14C6.89524 14 5.44762 12.4886 5.44762 10.5795C5.44762 8.67045 6.89524 7.15909 8.72381 7.15909C10.5524 7.15909 12 8.71023 12 10.5795ZM9.52381 10.858L10.3238 10.0227L9.18095 9.86364L8.68571 8.78977L8.19048 9.86364L7.04762 10.0227L7.84762 10.858L7.65714 12.0114L8.64762 11.4545L9.63809 12.0114L9.52381 10.858ZM4.41905 10.5795C4.41905 9.58523 4.72381 8.59091 5.33333 7.83523C5.10476 7.875 4.8381 7.91477 4.57143 7.91477C3.31429 7.91477 2.13333 7.35795 1.33333 6.36364C0.495238 7 0 8.03409 0 9.14773V12.7273C0 13.4034 0.533333 13.9602 1.18095 14H5.94286C4.99048 13.125 4.41905 11.892 4.41905 10.5795Z" fill="url(#paint0_linear_1_99)"/>
</g>
<defs>
<linearGradient id="paint0_linear_1_99" x1="0" y1="6.99077" x2="11.9909" y2="6.99077" gradientUnits="userSpaceOnUse">
<stop stop-color="#FF0404"/>
<stop offset="1" stop-color="#820101"/>
</linearGradient>
<clipPath id="clip0_1_99">
<rect width="12" height="14" fill="white"/>
</clipPath>
</defs>
</svg>
